<svg id="Layer_1" data-name="Layer 1" xmlns="http://www.w3.org/2000/svg" viewBox="0 0 1073.8 432"><defs><style>.cls-1{fill:#00684a;}</style></defs><title>mongodb-atlas-logo</title><path class="cls-1" d="M141.48,48.15C123.35,26.64,107.74,4.79,104.55.25a.83.83,0,0,0-1.18,0c-3.19,4.54-18.8,26.39-36.93,47.9C-89.19,246.63,91,380.57,91,380.57l1.51,1c1.34,20.67,4.7,50.42,4.7,50.42h13.43s3.36-29.58,4.7-50.42l1.51-1.17C117,380.57,297.1,246.63,141.48,48.15Zm-37.61,329.4s-8.05-6.89-10.24-10.42v-.34l9.74-216.12a.51.51,0,1,1,1,0l9.74,216.12v.34C111.93,370.66,103.87,377.55,103.87,377.55Z" transform="translate(-3.1 0)"/><path class="cls-1" d="M523.18,363.75A11.43,11.43,0,0,1,512.09,356L427.37,147.25l-2.69-2.69h-8.07l-2.69,2.69L328.19,354.34c-3,7.06-7.73,9.41-13.11,9.41h-6.72l-2.69,2.69V377.2l2.69,2.69h60.85l2.69-2.69V366.44l-2.69-2.69H356.43c-6.05,0-8.07-3-8.07-6.72a21.43,21.43,0,0,1,1.68-7.4l12.44-30.25H464l12.1,30.25a21.24,21.24,0,0,1,1.69,7.4c0,3.7-2.36,6.72-8.41,6.72H459l-2.69,2.69V377.2l2.69,2.69h71.94l2.69-2.69V366.44l-2.69-2.69ZM413.92,195l43.7,108.25H369.21Z" transform="translate(-3.1 0)"/><path class="cls-1" d="M601.26,384.6c28.91,0,42-21.18,44.37-30.59l-.67-2.7-5.38-2.68-2.69,1c-9.07,11.43-18.15,14.8-28.57,14.8-13.79,0-22.53-10.76-22.53-24.54V230h44.72l2.69-2.69V216.5l-2.69-2.69H585.79V176.16l-2.69-2.69h-9.74l-21.19,40.34H534.36l-2.69,2.69v10.76l2.69,2.69H558.9V341.57C558.9,366.44,572.68,384.6,601.26,384.6Z" transform="translate(-3.1 0)"/><path class="cls-1" d="M728,379.89l2.69-2.69V366.44L728,363.75h-6c-6.72,0-11.43-4.7-11.43-11.43V159.69l2-19.5-2-2.35h-8.07L666.17,151l-2.69,3.36v6.39l3.36,3.36h5c6.73,0,11.77,3.36,11.77,11.43V352.32c0,6.73-4.71,11.43-11.43,11.43h-6.05l-2.69,2.69V377.2l2.69,2.69Z" transform="translate(-3.1 0)"/><path class="cls-1" d="M929.31,363.75c-6.73,0-11.43-4.7-11.43-11.43V216.5l-2.69-2.69h-9.75l-13.79,24.88H890c-10.08-14.45-28.57-29.58-59.17-29.58-41.35,0-80.35,32.61-80.35,87.74,0,61.53,39,87.75,78.67,87.75,21.85,0,45-7.4,61.86-35V377.2l2.69,2.69h41.69l2.69-2.69V366.44l-2.69-2.69Zm-95.48,5.05c-37.32,0-55.14-34.63-55.14-71.95,0-37.65,17.82-71.94,55.14-71.94,36.31,0,55.13,34.29,55.13,71.94C889,334.17,870.14,368.8,833.83,368.8Z" transform="translate(-3.1 0)"/><path class="cls-1" d="M1019.41,384.6c32.61,0,57.49-20.51,57.49-51.44,0-26.22-21.85-39-44.38-48.07-32.61-13.11-41.68-22.19-41.68-36.65s11.76-25.21,28.57-25.21c20.17,0,31.94,14.79,32.95,37.31l3.36,3.37h7.73l3.36-3.37-1.68-37-2.35-3.36c-11.43-6-24.88-11.09-42-11.09-33.62,0-55.81,18.82-55.81,48.07,0,22.19,18.15,35.3,45.38,46.06,20.51,8.07,39.34,16.47,39.34,40,0,17.14-12.11,27.56-29.92,27.56s-39-11.43-36.65-40.67l-3.36-3.37h-6.39L970,330.14l-8.74,35.3,1.68,3.36C975.37,377.2,995.54,384.6,1019.41,384.6Z" transform="translate(-3.1 0)"/></svg>